<svg
    width="433"
    height="467"
    viewBox="0 0 433 467"
    fill="none"
    xmlns="http://www.w3.org/2000/svg"
  >
    <ellipse cx="214.8" cy="34.9402" rx="35.0696" ry="34.9402" fill="#D9D9D9" />
    <rect
      x="179.967"
      y="78.6157"
      width="72.9044"
      height="170.334"
      rx="30"
      fill="#D9D9D9"
    />
    <path
      d="M158.263 75.567C188.978 79.2522 169.013 91.436 155.192 97.0672C132.156 95.5319 49.2255 163.105 38.4753 173.855C27.725 184.605 0.0819935 196.892 3.15364 184.606C6.22529 172.32 119.87 70.9605 158.263 75.567Z"
      fill="#D9D9D9"
    />
    <path
      d="M274.712 75.567C243.998 79.2522 263.962 91.436 277.784 97.0672C300.82 95.5319 383.75 163.105 394.5 173.855C405.251 184.605 432.894 196.892 429.822 184.606C426.75 172.32 313.105 70.9605 274.712 75.567Z"
      fill="#D9D9D9"
    />
    <path
      d="M187.058 334.095C183.818 321.74 183.008 278.938 183.008 259.082V254.181C183.008 252.547 184.861 251.603 186.183 252.563L206.478 267.303C207 267.682 207.307 268.261 207.302 268.906C206.981 315.501 205.864 411.257 203.793 454.63C203.689 456.8 200.817 457.126 200.159 455.055C180.031 391.713 190.924 348.835 187.058 334.095Z"
      fill="#D9D9D9"
    />
    <path
      d="M249.513 334.684C252.478 322.219 253.219 279.036 253.219 259.002V254.262C253.219 252.585 251.278 251.652 249.969 252.701L231.737 267.301C231.26 267.683 230.983 268.235 230.987 268.847C231.279 315.521 232.29 411.236 234.162 455.418C234.255 457.629 237.182 457.929 237.788 455.801C255.847 392.4 245.992 349.484 249.513 334.684Z"
      fill="#D9D9D9"
    />
  </svg>